<svg viewBox="0 0 32 32" xmlns="http://www.w3.org/2000/svg"><style/><g id="icons"><path d="M15 16.8h2c.2 0 .4-.2.3-.4l-1.1-3.2c-.1-.3-.5-.3-.6 0l-1 3.2c.1.2.2.4.4.4zm11.2-5.4V6.7c0-.5-.4-.9-.9-.9h-4.7c-.2 0-.5-.1-.6-.3l-3.3-3.3c-.3-.3-.9-.3-1.3 0l-3.3 3.3c-.2.2-.4.3-.6.3H6.7c-.5 0-.9.4-.9.9v4.7c0 .2-.1.5-.3.6l-3.3 3.3c-.3.3-.3.9 0 1.3l3.3 3.3c.2.2.3.4.3.6v4.7c0 .5.4.9.9.9h4.7c.2 0 .5.1.6.3l3.3 3.3c.3.3.9.3 1.3 0l3.3-3.3c.2-.2.4-.3.6-.3h4.7c.5 0 .9-.4.9-.9v-4.7c0-.2.1-.5.3-.6l3.3-3.3c.3-.3.3-.9 0-1.3L26.4 12c-.1-.1-.2-.3-.2-.6zm-7.5 9.1l-.4-1.2c-.1-.4-.6-.7-1-.7h-2.6c-.5 0-.9.3-1 .7l-.4 1.2c-.1.4-.5.6-.8.6H12c-.6 0-1-.6-.8-1.2l3.4-9.7c.1-.4.5-.6.8-.6h1.3c.4 0 .7.2.8.6l3.4 9.7c.2.6-.2 1.2-.8 1.2h-.5c-.4 0-.8-.3-.9-.6z" id="auto_x5F_brightness_1_" fill="#222a30"/></g></svg>