<?xml version="1.0" ?><svg style="enable-background:new 0 0 32 32;" version="1.1" viewBox="0 0 32 32" xml:space="preserve" xmlns="http://www.w3.org/2000/svg" xmlns:xlink="http://www.w3.org/1999/xlink"><style type="text/css">
	.st0{fill:#222A30;}
	.st1{fill:none;stroke:#222A30;stroke-width:1.8761;stroke-linejoin:round;stroke-miterlimit:10;}
	.st2{fill:#171715;}
	.st3{fill-rule:evenodd;clip-rule:evenodd;fill:#222A30;}
</style><g id="Layer_1"/><g id="icons"><path class="st0" d="M15,16.8h2c0.2,0,0.4-0.2,0.3-0.4l-1.1-3.2c-0.1-0.3-0.5-0.3-0.6,0l-1,3.2   C14.7,16.6,14.8,16.8,15,16.8z M26.2,11.4V6.7c0-0.5-0.4-0.9-0.9-0.9h-4.7c-0.2,0-0.5-0.1-0.6-0.3l-3.3-3.3c-0.3-0.3-0.9-0.3-1.3,0   l-3.3,3.3c-0.2,0.2-0.4,0.3-0.6,0.3H6.7c-0.5,0-0.9,0.4-0.9,0.9v4.7c0,0.2-0.1,0.5-0.3,0.6l-3.3,3.3c-0.3,0.3-0.3,0.9,0,1.3   l3.3,3.3c0.2,0.2,0.3,0.4,0.3,0.6v4.7c0,0.5,0.4,0.9,0.9,0.9h4.7c0.2,0,0.5,0.1,0.6,0.3l3.3,3.3c0.3,0.3,0.9,0.3,1.3,0l3.3-3.3   c0.2-0.2,0.4-0.3,0.6-0.3h4.7c0.5,0,0.9-0.4,0.9-0.9v-4.7c0-0.2,0.1-0.5,0.3-0.6l3.3-3.3c0.3-0.3,0.3-0.9,0-1.3l-3.3-3.3   C26.3,11.9,26.2,11.7,26.2,11.4z M18.7,20.5l-0.4-1.2c-0.1-0.4-0.6-0.7-1-0.7h-2.6c-0.5,0-0.9,0.3-1,0.7l-0.4,1.2   c-0.1,0.4-0.5,0.6-0.8,0.6h-0.5c-0.6,0-1-0.6-0.8-1.2l3.4-9.7c0.1-0.4,0.5-0.6,0.8-0.6h1.3c0.4,0,0.7,0.2,0.8,0.6l3.4,9.7   c0.2,0.6-0.2,1.2-0.8,1.2h-0.5C19.2,21.1,18.8,20.8,18.7,20.5z" id="auto_x5F_brightness_1_"/></g></svg>